<?xml version="1.0" encoding="utf-8"?>
<!-- Generator: Adobe Illustrator 21.1.0, SVG Export Plug-In . SVG Version: 6.00 Build 0)  -->
<svg version="1.1" id="Layer_1" xmlns="http://www.w3.org/2000/svg" xmlns:xlink="http://www.w3.org/1999/xlink" x="0px" y="0px"
	 width="1232px" height="960px" viewBox="0 0 1232 960" style="enable-background:new 0 0 1232 960;" xml:space="preserve">
<style type="text/css">
	.st0{clip-path:url(#SVGID_2_);}
	.st1{fill:url(#SVGID_3_);stroke:url(#SVGID_4_);stroke-miterlimit:10;}
	.st2{fill:#232338;}
	.st3{fill:none;}
	.st4{fill:#2A1B2B;}
	.st5{fill:#412442;}
	.st6{fill:#EFC04B;}
	.st7{fill:#80FF86;}
	.st8{fill:#303718;}
	.st9{fill:#9D958B;}
	.st10{fill:#33334F;}
	.st11{fill:#686B6B;}
	.st12{fill:#141014;}
	.st13{fill:#C1B4A4;}
	.st14{fill:#433132;}
	.st15{fill:#83FFF9;}
	.st16{fill:#194644;}
	.st17{fill:url(#SVGID_5_);}
	.st18{fill:#5A5B5B;}
	.st19{fill:#101019;}
	.st20{fill:#35383A;}
	.st21{fill:#CCCECE;}
	.st22{fill:#381F06;}
	.st23{fill:#110801;}
	.st24{fill:#B2831B;}
</style>
<g id="Layer_12">
	<g>
		<defs>
			<rect id="SVGID_1_" x="1" y="-3.7" width="1232.9" height="967.5"/>
		</defs>
		<clipPath id="SVGID_2_">
			<use xlink:href="#SVGID_1_"  style="overflow:visible;"/>
		</clipPath>
		<g class="st0">
			<g id="Layer_8">
				<g id="Layer_6">
					
						<linearGradient id="SVGID_3_" gradientUnits="userSpaceOnUse" x1="618.43" y1="476.855" x2="618.43" y2="1048.4449" gradientTransform="matrix(1 0 0 -1 0 961.89)">
						<stop  offset="0" style="stop-color:#FBDB17"/>
						<stop  offset="6.000000e-02" style="stop-color:#F6D214"/>
						<stop  offset="0.17" style="stop-color:#E8B80C"/>
						<stop  offset="0.29" style="stop-color:#D49400"/>
						<stop  offset="0.47" style="stop-color:#E599A3"/>
						<stop  offset="0.56" style="stop-color:#E097A2"/>
						<stop  offset="0.67" style="stop-color:#D191A0"/>
						<stop  offset="0.79" style="stop-color:#B9889C"/>
						<stop  offset="0.92" style="stop-color:#977B97"/>
						<stop  offset="1" style="stop-color:#7E7193"/>
					</linearGradient>
					
						<linearGradient id="SVGID_4_" gradientUnits="userSpaceOnUse" x1="-4.724" y1="762.65" x2="1241.5859" y2="762.65" gradientTransform="matrix(1 0 0 -1 0 961.89)">
						<stop  offset="0" style="stop-color:#FF7300"/>
						<stop  offset="0.18" style="stop-color:#F97C01"/>
						<stop  offset="0.47" style="stop-color:#EA9602"/>
						<stop  offset="0.55" style="stop-color:#E59E03"/>
						<stop  offset="0.87" style="stop-color:#E5C500"/>
						<stop  offset="0.99" style="stop-color:#BF6F00"/>
					</linearGradient>
					<polygon class="st1" points="1241.1,479.8 -4.2,485 0.4,-86.6 1234.4,-81.6 					"/>
				</g>
				<polyline class="st2" points="262.1,291.2 263.7,282.2 265.3,272.8 266.8,264 277.7,201.4 293.4,264.7 295.5,273 297.3,280.4 
					299.7,290 				"/>
				<line class="st3" x1="436.4" y1="336.7" x2="409.8" y2="336"/>
				<path class="st4" d="M847.6,818.5l-13.1-258.2c0,0-41.4-25.6-132.2-69c-58.8-28.2-41-20.3-52.7-27.6
					c-4.4-6.5,47.9-139.9-7.7-128.3c-25.4,5.3-51.3,14-65.4-6c-4.5-6.5-65.6-46.2-109.5-26l-32-6c0,0-15.3,12.5-70.8,9.1
					c-0.3,0-0.7,0-1-0.1c-41.5-37.2-200.7-1.2-235.8,7.3C42,321.1,0.8,332.1,0.8,332.1l0.1,77.4L6,960.6L847.6,818.5z"/>
				<path class="st5" d="M1242.7,447.4l0.1-0.9c0.5-45.6,0.3-73.9-0.4-60.8c-4.4,21.8-46.9,21.3-86.6,11.7
					c-45.7-11.1-68-34.3-68-34.3s2.8-45.5-243-83.5s-239-17.8-239-17.8s-202.9,194-228.4,150.6S-14,701.9-14,701.9l11.8,27.4
					l20.4,11L178.5,771l122.8,20l102.1,21.7L601.3,842L855,866.3l373.4,18.6c0,0,2-55.4,4.3-129.5l10.2,6L1242.7,447.4z"/>
				<path class="st6" d="M426.9,270.4c0,3.6-2.9,6.5-6.5,6.5"/>
				<g id="Layer_5">
					<polyline class="st7" points="1121.8,706.4 1092.8,712 1128,708.1 1135.8,714.2 1139.8,729.8 1128.8,735.1 					"/>
					<polyline class="st7" points="987.8,723.1 998.8,729.8 1128.8,730.4 1127.8,706.4 1145.8,720.9 1150.3,732.9 1050.8,744.3 
						998.8,753.2 987.8,723.1 					"/>
					<polygon class="st8" points="752.8,736.5 768.3,726.2 815.3,729.8 821.5,743.8 					"/>
					<polygon class="st8" points="669.8,715.3 688.8,710.9 714.8,715.3 731.8,707.5 731.8,726.2 					"/>
				</g>
				<path class="st9" d="M662,706.1c0,0,35.7,13.7,109.7,23.7s107.9,12.1,107.9,12.1l-0.7,20.5l-191.2-18.1l-43-10L609,694.1
					L662,706.1z"/>
				<path class="st10" d="M370.9,645.4c0,0,90.8,6.5,136.8,19.8s28,11.1,107,28.9s69,23.4,137,35.6s70,6.7,70,6.7l-2,47l-175.3,8.2
					l-191.7-72.9l-54-7.8"/>
				<path class="st9" d="M803.3,804.4l18.5-67.9c0,0,33,5.6,110,7.8s191-14.5,191-14.5c116-13.4,118-14.5,118-14.5v119.1"/>
				<path class="st10" d="M1240.8,723.1c0,0-63,7.8-207,21.2s-275.9-10.1-275.9-10.1l-0.1,89.2l372.5,23.7l110.5-23.7"/>
				<path class="st10" d="M315.8,694.2l158,21.2c0,0,11-47.9-37-59c-30-7-22.5-5.2-32.4-6.2c-6-0.6-18.2-2.1-48.6-7.1
					c-81-13.4-141.3-7.7-141.3-7.7s31.3-0.1-105.7,4.3s-113,5.6-113,5.6V683"/>
				<path class="st10" d="M757.8,744.6c129.9,13,12.9,11.9,129.9,11.9s15,11.1,117,0s4-3.3,102-12.2s39.4,3.1,98-7.8l36-6.7v83.5
					l-386-7.8l-91-13.4"/>
				<g id="Layer_3">
					<path class="st11" d="M728.4,768.4c0,0-94.5-42.3-342.6-89.4s-98.1,136.7-98.1,136.7L701,858.9l30.7-60.1L728.4,768.4z"/>
					<path class="st11" d="M1238.4,773.9c0,0-1.1,0.1-3.3,0.2c-44.4,2.6-516.1,28.9-553.1-22.8c-38.9-54.2-52.2,70.5-52.2,70.5
						l314,49.8l183.3,3l114-31.2"/>
					<path class="st2" d="M1241.1,829.9l-0.3-100.2c0,0-152,16.7-213.6,24.3s-90.4,3.6-144.7,2.5S702,729.8,702,729.8
						c-32.4-7.6-57.4-14-57.4-14s-54.7-14.9-104.7-26s-26-10-107-18.9s-58-14.5-141-15.6s-83,0-83,0h-10c-35,0-44.7,0.7-76.8,3.2
						l0,0l-4.9,0.3c-7.2,0.6-15.5,1.2-25.3,2c-48.2,3.7-81.6,11.2-92.2,13.9l-3.8,0.6l0.5,96.3l37.2,1.1l155.9,31.7h126l134-18.6
						c0,0,8-4.3,18.4-11.2l73.9,10.8l167.3,9.9l29.7,17.9l135,28.9l32.3-25.6L1241.1,829.9z M94.6,753.8l23.4-81.7
						c28.3-0.6,59.7-1,91.9-1.1l4.8,66.6l10.1,1.5L94.6,753.8z"/>
				</g>
				<g id="Layer_10">
					<polyline class="st10" points="340.8,618.5 354.8,611.8 434.8,621.8 425.8,628.5 					"/>
					<line class="st3" x1="234.8" y1="602.9" x2="242.8" y2="599.6"/>
					<path class="st12" d="M1187.1,503.5l-22.2,3.1l0,0c-5.1,0.7-10.2,1.2-15.2,1.8c-44,4.5-58-2.2-151-12.2s-103,4.5-172,28.9
						c-69,24.5-50,14.5-136,22.3s-46,7.8-122,55.7s-104,42.3-104,42.3l303.5,89.9l188.8,9.2l283.7-25.7V493.9
						C1240.8,493.8,1219.8,498.5,1187.1,503.5z"/>
				</g>
				<g id="Layer_13">
					<line class="st3" x1="1022" y1="760.9" x2="1092.8" y2="754.3"/>
					<path class="st2" d="M1137.4,748.4L1137.4,748.4c-85.7,10.3-98.7,12.6-98.7,12.6c-33,2.2-76.7,2.5-76.7,2.5"/>
				</g>
				<g id="Layer_4">
					<path class="st13" d="M1034.4,793.1c0,0-250.7,1.7-339-31.3s-35,86.7-35,86.7l381.6,22.7L1034.4,793.1z"/>
					<line class="st3" x1="920.9" y1="780.4" x2="941.9" y2="791.6"/>
					<path class="st14" d="M1059.8,756.5l0.2,0.5h-0.4c-73.5,9.9-156.6,6.9-221.6,1.5c-16.2-1.3-31.2-2.9-44.7-4.5
						c-24.7-3.8-78.7-15.4-114.4-23.2C267.9,611.5,4,680.4,4,680.4h-8.1v250.4l475.8,5.2c0,0,643.8,56.4,568.9-45.8l25.2,11.6
						l109.6-39.8l65.4,26.8V737.5L1059.8,756.5z"/>
					<polyline class="st10" points="323.8,634.1 340.8,634.1 340.8,647.4 317.8,637.4 					"/>
				</g>
				<g id="Layer_2">
					<path class="st15" d="M355.9,882.4c1.9,0,1.9-3.3,0-3.3S353.9,882.4,355.9,882.4z"/>
					<polyline class="st10" points="45.5,672.3 -4.2,682.7 -4.2,677.5 					"/>
					<path class="st16" d="M412,719.2l5.2,0.7L412,719.2z"/>
					
						<linearGradient id="SVGID_5_" gradientUnits="userSpaceOnUse" x1="633.9511" y1="216.9328" x2="575.4446" y2="-114.9242" gradientTransform="matrix(1 0 0 -1 0 961.89)">
						<stop  offset="0" style="stop-color:#514C61"/>
						<stop  offset="0.18" style="stop-color:#3C3C55"/>
						<stop  offset="0.39" style="stop-color:#2D314D"/>
						<stop  offset="0.63" style="stop-color:#252A48"/>
						<stop  offset="1" style="stop-color:#222847"/>
					</linearGradient>
					<path class="st17" d="M1240.8,888.9l-27.5-14.5l-5.7-3.2l0,0c-91.2-65.8-456.1-90.8-456.1-90.8S598.4,746.9,489,730.9
						c-76.1-11.1-81.1-12.1-77.1-11.7c-15-1.8-60.8-7.2-113.3-12.6c-9.2-0.9-18.5-1.9-28-2.8l0,0c-9.9-1-20-1.9-29.9-2.8
						c-29.4-2.6-58.2-4.8-82.6-5.9c-9.7-0.5-18.7-0.8-26.8-0.8c-3,0-5.7-0.1-8.4-0.1l-4.7-0.3l-5.3,0.2c-60.8-0.6-14.5,0.3-14.5,0.3
						l-21.2-0.2l-0.6-0.3l-0.2,0.3l-17.7-0.1v-0.1h-63l0.4,240.8l-0.4,39.7h23.1v0.6l234.9-0.2l117.2,0.2l-0.1-0.3l830.1-0.7h11.4
						l28.4,0.3L1240.8,888.9L1240.8,888.9z"/>
					<polygon class="st2" points="901.8,645.2 988,647.7 987.8,740.9 901.8,740.9 					"/>
				</g>
				<path class="st18" d="M1003.8,744.3c110-5.6-17,7.8,100-6.7s0-3.3,137-18.9"/>
			</g>
			<g id="Buildings">
				<g id="Layer_14">
					<rect x="788.8" y="647.7" class="st2" width="102" height="82.1"/>
					<rect x="666.8" y="473.8" class="st2" width="48" height="120.2"/>
					<rect x="234.8" y="602.9" class="st2" width="83" height="26.7"/>
					<polyline class="st19" points="714.8,715.3 608.8,670.8 608.8,640.8 714.8,678.6 					"/>
					<polyline class="st19" points="568.8,594 568.8,645.2 568.8,655.2 585.8,660.8 585.8,594 568.8,585.1 					"/>
					<polygon class="st2" points="1128.8,729.8 998.8,729.8 998.8,699.7 1066.3,699.7 1128.8,699.7 					"/>
					<polyline class="st19" points="1133.8,640.8 1109.8,634.1 1109.8,699.7 1133.8,710.9 					"/>
					<polyline class="st19" points="998.8,699.7 987.8,694.2 987.8,723.1 998.8,729.8 					"/>
					<polyline class="st2" points="622.8,585.1 622.8,636.3 608.8,640.8 585.8,654.7 585.8,594 					"/>
					<polyline class="st2" points="585.8,660.8 603.8,655.2 608.8,655.2 608.8,634.1 585.8,640.8 					"/>
					<line class="st3" x1="716.8" y1="664.1" x2="718.8" y2="670.8"/>
					<polyline class="st2" points="341.3,641.9 425.3,651.8 425.8,627.4 340.8,618.5 					"/>
					<polyline class="st10" points="425.8,653 425.8,628.5 434.8,622.2 434.8,647.7 438.8,647.4 438.8,660.8 					"/>
					<polyline class="st2" points="83.8,640.8 -4.2,650.8 -4.2,594 83.8,588.4 					"/>
					<polyline class="st2" points="216.8,565.1 216.8,635.1 183.3,637.1 183.8,569.5 183.8,565.1 					"/>
					<polyline class="st19" points="489.8,579.5 438.8,570.6 438.9,653.4 489.8,661.9 					"/>
					<polyline class="st2" points="511.8,570.6 511.8,607.4 489.8,661.9 489.8,579.5 					"/>
					<polyline class="st2" points="714.8,678.6 714.8,715.3 732.8,708.5 732.8,667.5 					"/>
					<polyline class="st19" points="763.8,655.2 763.8,728.7 732.8,723.1 731.8,649.7 					"/>
					<polyline class="st2" points="772.8,659.7 772.8,723.8 763.8,728.7 763.8,651.9 772.8,651.9 					"/>
					<polyline class="st19" points="901.8,740.9 893.8,737.6 893.8,640.8 901.8,645.2 					"/>
					<rect x="1133.8" y="640.8" class="st2" width="107" height="70.1"/>
					<polyline class="st2" points="514.4,653 511.8,607.4 489.8,611.8 489.8,661.9 					"/>
				</g>
				<g id="Layer_15">
					<polyline class="st20" points="714.8,473.8 718.8,473.8 718.8,590.7 714.8,594 					"/>
					<polyline class="st2" points="317.8,629.6 317.8,637.9 234.8,634.3 234.5,619.9 					"/>
					<polyline class="st10" points="323.8,599.6 323.8,634.1 317.8,637.4 317.8,602.9 					"/>
				</g>
				<g id="Layer_16">
					<polyline class="st10" points="1240.8,643 1133.8,643 1109.8,634.1 1240.8,634.1 					"/>
					<line class="st3" x1="1128.8" y1="699.7" x2="1085.8" y2="714.2"/>
					<polyline class="st10" points="323.8,599.6 317.8,602.9 234.8,602.9 242.8,599.6 					"/>
					<polyline class="st10" points="183.8,565.1 216.8,565.1 214.8,562.8 185.8,562.8 					"/>
					<polyline class="st10" points="83.8,588.4 72.8,581.8 -4.2,588.4 -4.2,595.1 					"/>
					<polyline class="st10" points="438.8,570.6 489.8,579.5 514.8,570.6 460.8,561.7 					"/>
					<polyline class="st10" points="603.8,576.2 622.8,585.1 585.8,594 568.8,585.1 					"/>
					<polyline class="st10" points="608.8,640.8 638.8,627.4 731.8,664.1 731.8,673 714.8,681.9 					"/>
					<polyline class="st10" points="772.8,651.9 763.8,655.2 731.8,649.7 744.8,647.4 					"/>
					<polyline class="st10" points="788.8,648.9 791.8,641.9 888.8,641.9 890.8,648.9 					"/>
					<polyline class="st10" points="902.2,647.7 893.8,640.8 979.8,640.8 988,647.7 					"/>
					<line class="st3" x1="987.8" y1="694.1" x2="998.8" y2="699.7"/>
				</g>
				<g id="Layer_18">
					<polyline class="st10" points="999.2,701.5 1127.8,701.5 1109.8,694.2 988,694.2 					"/>
					<polyline class="st21" points="1128.8,729.8 1128,708.1 1127.8,706.4 					"/>
					<polyline class="st10" points="579.8,679.3 694.6,707.5 670.8,718.7 682.2,720.8 694.8,723.1 723.8,729.8 768.3,738.1 
						766.9,729.6 					"/>
				</g>
				<g id="Layer_19">
					<rect x="1068.8" y="701.5" class="st2" width="59" height="28.3"/>
					<polyline class="st22" points="1050.8,516.1 997.8,516.1 926.8,516.1 923.8,473.8 944.8,454.9 961.8,473.8 1018.8,473.8 
						1035.8,454.9 1050.8,473.8 					"/>
					<polyline class="st22" points="923.8,516.1 923.8,476.6 990.3,516.1 					"/>
				</g>
				<g id="Layer_20">
					<polyline class="st23" points="923.8,473.8 901.8,470.5 901.8,507.2 923.8,516.1 					"/>
					<polyline class="st10" points="1019.8,473.8 1022.8,454.9 946.8,457.1 961.8,473.8 					"/>
				</g>
				<g id="Layer_21">
					<polyline class="st2" points="1019.8,454.9 1019.8,473.8 1035.8,454.9 					"/>
					<polyline class="st2" points="917.8,454.9 901.8,470.5 923.8,473.8 944.8,454.9 					"/>
					<polyline class="st10" points="763.8,728.7 788.8,736 788.8,723.5 772.8,723.1 					"/>
					<polyline class="st10" points="648.8,687.5 714.8,715.3 704.8,724.2 655.8,714.2 603.8,699.7 576.8,690.8 596.8,681.9 					"/>
					<polyline class="st20" points="732.8,718.7 731.8,681.9 747.8,696.4 					"/>
					<polyline class="st9" points="893.8,744.3 893.8,729.8 870.8,729.8 873.8,744.3 					"/>
					<polygon class="st10" points="698.2,707.4 638.3,683.2 731.3,731.2 732.8,707.5 714.8,714 					"/>
					<path class="st10" d="M608.9,671l0.2-19.3l-23.3,8.9l-9.4-3.3c-7.4-3.1-15.1-5.2-23-6.5l-8.6-1.3l-30-2.2v5.6
						c-2.7,0.8-5.5,1.9-8.1,2.8l-31.9,11.7l219.8,40.1l-59.8-25.6L608.9,671z"/>
					<polygon class="st10" points="1234.7,710.1 1133.8,709.7 1128,708.1 1127.8,729 1035.8,729.8 1036,729.9 998.9,729 
						987.8,723.1 987.9,723.6 987.8,723.5 987.8,739.9 902,739.7 892.8,735.4 894,728.7 889.8,729.8 811.9,728.7 788.8,727.8 
						768.3,726.2 757.8,735.4 814.8,744.6 813.5,737.7 850.8,744.9 992.6,748.4 993.8,754.3 1146.8,737.6 1240.8,729.8 
						1240.8,710.1 					"/>
					<polyline class="st10" points="431.8,637.4 438.8,637.4 438.8,651.9 432.3,653 					"/>
					<polyline class="st19" points="747.8,673 757.8,726.5 731.8,720.3 731.9,658.8 					"/>
				</g>
			</g>
			<g id="Layer_17">
				<polyline class="st2" points="514.8,570.6 517.8,651.9 504.9,656.4 503.5,575.2 				"/>
			</g>
			<polygon class="st10" points="238.8,651.8 69.9,658.7 143.1,638.5 234.8,634.3 			"/>
			<rect x="788.8" y="648.9" class="st10" width="102" height="3.3"/>
		</g>
	</g>
	<polygon class="st23" points="265.3,271.8 295.5,272 293.4,263.7 266.8,263 	"/>
	<line class="st3" x1="270.6" y1="241.8" x2="288" y2="241.9"/>
	<polygon class="st23" points="270.3,245.9 288.9,245.9 286.9,237.9 271.8,237.1 	"/>
</g>
<g id="Layer_2-2">
	<rect x="1142.9" y="651.9" class="st6" width="12" height="13"/>
	<rect x="1168.9" y="651.9" class="st6" width="12" height="13"/>
	<rect x="1213.9" y="651.9" class="st6" width="12" height="13"/>
	<rect x="1168.9" y="680.9" class="st6" width="12" height="13"/>
	<rect x="1004.9" y="706.9" class="st6" width="75" height="13"/>
	<polygon class="st10" points="998.8,753.2 881.9,752.9 804.5,742.9 818.5,733.9 879.6,741.9 987.9,745.9 1009.2,745.9 	"/>
	<polygon class="st10" points="862.9,733.9 893.9,728.9 893.9,741.4 	"/>
	<rect x="904.9" y="654.9" class="st6" width="12" height="13"/>
	<rect x="921.9" y="654.9" class="st6" width="12" height="13"/>
	<rect x="938.9" y="654.9" class="st6" width="12" height="13"/>
	<rect x="955.9" y="654.9" class="st6" width="12" height="13"/>
	<rect x="972.9" y="654.9" class="st6" width="12" height="13"/>
	<rect x="904.9" y="682.9" class="st6" width="12" height="13"/>
	<rect x="921.9" y="682.9" class="st6" width="12" height="13"/>
	<rect x="938.9" y="682.9" class="st6" width="12" height="13"/>
	<rect x="955.9" y="682.9" class="st6" width="12" height="13"/>
	<rect x="966.9" y="712.9" class="st6" width="12" height="13"/>
	<rect x="794.9" y="657.9" class="st6" width="12" height="13"/>
	<rect x="811.9" y="657.9" class="st6" width="12" height="13"/>
	<rect x="828.9" y="657.9" class="st6" width="12" height="13"/>
	<rect x="845.9" y="657.9" class="st6" width="37" height="13"/>
	<rect x="845.9" y="698.9" class="st6" width="37" height="30"/>
	<polygon class="st24" points="757.9,676.9 735.9,670.9 735.9,657.9 757.9,661.9 	"/>
	<polygon class="st24" points="636.9,670.9 614.9,660.9 614.9,647.9 636.9,657.9 	"/>
	<polygon class="st24" points="708.9,700.9 686.9,690.9 686.9,677.9 708.9,687.9 	"/>
	<rect x="669.9" y="479.9" class="st6" width="12" height="13"/>
	<rect x="684.9" y="479.9" class="st6" width="12" height="13"/>
	<rect x="669.9" y="509.9" class="st6" width="12" height="13"/>
	<rect x="684.9" y="509.9" class="st6" width="12" height="13"/>
	<rect x="699.9" y="509.9" class="st6" width="12" height="13"/>
	<rect x="669.9" y="539.9" class="st6" width="12" height="13"/>
	<rect x="699.9" y="539.9" class="st6" width="12" height="13"/>
	<polygon class="st6" points="617.9,607.9 591.9,615.9 591.9,599.9 617.9,594.9 	"/>
	<polygon class="st24" points="582.9,631.9 571.9,624.9 571.9,611.9 582.9,617.9 	"/>
	<path class="st6" d="M201.4,570.9L201.4,570.9c5.8,0,10.5,4.7,10.5,10.5l0,0c0,5.8-4.7,10.5-10.5,10.5l0,0
		c-5.8,0-10.5-4.7-10.5-10.5l0,0C190.9,575.6,195.6,570.9,201.4,570.9z"/>
	<polygon class="st24" points="482.9,601.9 445.9,591.9 445.9,578.9 482.9,586.9 	"/>
	<polygon class="st6" points="514.9,637.9 494.9,645.9 494.9,629.9 514.9,621.9 	"/>
	<polygon class="st6" points="406.9,637.9 344.9,629.9 344.9,623.9 406.9,630.9 	"/>
	<rect x="239.9" y="607.9" class="st6" width="28" height="16"/>
	<path class="st6" d="M950.9,502.9h-16v-24c0-4.4,3.6-8,8-8l0,0c4.4,0,8,3.6,8,8V502.9z"/>
	<rect x="1006.9" y="478.9" class="st6" width="12" height="13"/>
</g>
</svg>
